<svg width="19" height="20" viewBox="0 0 19 20" fill="none" xmlns="http://www.w3.org/2000/svg">
<path d="M4.425 7.4748L8.15 1.3998C8.25 1.23314 8.375 1.1123 8.525 1.0373C8.675 0.962305 8.83333 0.924805 9 0.924805C9.16667 0.924805 9.325 0.962305 9.475 1.0373C9.625 1.1123 9.75 1.23314 9.85 1.3998L13.575 7.4748C13.675 7.64147 13.725 7.81647 13.725 7.9998C13.725 8.18314 13.6833 8.3498 13.6 8.4998C13.5167 8.64981 13.4 8.77064 13.25 8.8623C13.1 8.95397 12.925 8.9998 12.725 8.9998H5.275C5.075 8.9998 4.9 8.95397 4.75 8.8623C4.6 8.77064 4.48333 8.64981 4.4 8.4998C4.31667 8.3498 4.275 8.18314 4.275 7.9998C4.275 7.81647 4.325 7.64147 4.425 7.4748ZM14.5 19.9998C13.25 19.9998 12.1875 19.5623 11.3125 18.6873C10.4375 17.8123 10 16.7498 10 15.4998C10 14.2498 10.4375 13.1873 11.3125 12.3123C12.1875 11.4373 13.25 10.9998 14.5 10.9998C15.75 10.9998 16.8125 11.4373 17.6875 12.3123C18.5625 13.1873 19 14.2498 19 15.4998C19 16.7498 18.5625 17.8123 17.6875 18.6873C16.8125 19.5623 15.75 19.9998 14.5 19.9998ZM0 18.4998V12.4998C0 12.2165 0.0958333 11.979 0.2875 11.7873C0.479167 11.5956 0.716667 11.4998 1 11.4998H7C7.28333 11.4998 7.52083 11.5956 7.7125 11.7873C7.90417 11.979 8 12.2165 8 12.4998V18.4998C8 18.7831 7.90417 19.0206 7.7125 19.2123C7.52083 19.404 7.28333 19.4998 7 19.4998H1C0.716667 19.4998 0.479167 19.404 0.2875 19.2123C0.0958333 19.0206 0 18.7831 0 18.4998ZM14.5 17.9998C15.2 17.9998 15.7917 17.7581 16.275 17.2748C16.7583 16.7915 17 16.1998 17 15.4998C17 14.7998 16.7583 14.2081 16.275 13.7248C15.7917 13.2415 15.2 12.9998 14.5 12.9998C13.8 12.9998 13.2083 13.2415 12.725 13.7248C12.2417 14.2081 12 14.7998 12 15.4998C12 16.1998 12.2417 16.7915 12.725 17.2748C13.2083 17.7581 13.8 17.9998 14.5 17.9998ZM2 17.4998H6V13.4998H2V17.4998ZM7.05 6.9998H10.95L9 3.8498L7.05 6.9998Z" fill="#C9C9CD"/>
</svg>
