<svg width="20" height="21" viewBox="0 0 20 21" fill="none" xmlns="http://www.w3.org/2000/svg">
<path d="M10 10C11.3261 10 12.5979 9.47322 13.5356 8.53553C14.4733 7.59785 15 6.32608 15 5C15 3.67392 14.4733 2.40215 13.5356 1.46447C12.5979 0.526784 11.3261 0 10 0C8.67395 0 7.40218 0.526784 6.4645 1.46447C5.52682 2.40215 5.00003 3.67392 5.00003 5C5.00003 6.32608 5.52682 7.59785 6.4645 8.53553C7.40218 9.47322 8.67395 10 10 10ZM10 12.5C4.99003 12.5 0.910034 15.86 0.910034 20C0.910034 20.28 1.13003 20.5 1.41003 20.5H18.59C18.87 20.5 19.09 20.28 19.09 20C19.09 15.86 15.01 12.5 10 12.5Z" fill="white" fill-opacity="0.4"/>
</svg>
