<svg width="28" height="22" viewBox="0 0 28 22" fill="none" xmlns="http://www.w3.org/2000/svg">
<path d="M5.99935 21.6654C4.53268 21.6654 3.27713 21.1431 2.23268 20.0987C1.18824 19.0543 0.666016 17.7987 0.666016 16.332V5.66536C0.666016 4.1987 1.18824 2.94314 2.23268 1.8987C3.27713 0.854254 4.53268 0.332031 5.99935 0.332031H21.9993C23.466 0.332031 24.7216 0.854254 25.766 1.8987C26.8105 2.94314 27.3327 4.1987 27.3327 5.66536V16.332C27.3327 17.7987 26.8105 19.0543 25.766 20.0987C24.7216 21.1431 23.466 21.6654 21.9993 21.6654H5.99935ZM5.99935 5.66536H21.9993C22.4882 5.66536 22.9549 5.72092 23.3993 5.83203C23.8438 5.94314 24.266 6.12092 24.666 6.36537V5.66536C24.666 4.93203 24.4049 4.30425 23.8827 3.78203C23.3605 3.25981 22.7327 2.9987 21.9993 2.9987H5.99935C5.26602 2.9987 4.63824 3.25981 4.11602 3.78203C3.59379 4.30425 3.33268 4.93203 3.33268 5.66536V6.36537C3.73268 6.12092 4.1549 5.94314 4.59935 5.83203C5.04379 5.72092 5.51046 5.66536 5.99935 5.66536ZM3.53268 9.9987L18.366 13.5987C18.566 13.6431 18.766 13.6431 18.966 13.5987C19.166 13.5543 19.3549 13.4654 19.5327 13.332L24.166 9.46536C23.9216 9.13203 23.6105 8.85981 23.2327 8.6487C22.8549 8.43759 22.4438 8.33203 21.9993 8.33203H5.99935C5.42157 8.33203 4.91602 8.48203 4.48268 8.78203C4.04935 9.08203 3.73268 9.48759 3.53268 9.9987Z" fill="#00D0AE"/>
</svg>
